:SAMPLES-PER-SECOND 30
:FRAME-RANGE 1-1770
:FULLY-SPECIFIED
:DEGREES
1439
root  0.205095 39.0417 -5.45478 -177.537 -29.7859 176.918
RightUpLeg  -26.7634 1.43861 -4.02911
RightLeg  31.8909 -8.59181 -5.95195
RightFoot  -3.15166 -0.443459 5.88817
RightToes  -1.33073e-015 0 -3.6325e-017
Spine  -6.64547 0.342963 -2.03575
Spine1  9.6202 1.01731 -3.01922
HEad  17.3528 11.7373 -2.87224
LeftShoulder1  1.61861 -2.54468 -21.5613
LeftArm  8.8868 -7.83127 -52.9474
LeftForeArm  29.3042 -8.76112 -11.9739
LeftHand  -0.0740664 4.24319 5.67705
RightShoulder  1.9217 2.17811 29.1288
RightArm  -28.3748 2.85949 50.932
RightForeArm  75.5579 -4.73314 1.43714
RightHand  0.165711 -6.60535 -17.2594
LeftUpLeg  0.479325 2.36492 -5.13466
LeftLeg  17.0369 -7.13614 -1.62996
LeftFoot  -16.756 0.333229 4.91382
LeftToes  1.09107e-011 -1.16422e-010 2.98337e-011
1440
root  -0.467401 39.0052 -7.00143 -176.991 -29.6604 177.539
RightUpLeg  -24.7808 2.98614 -4.20785
RightLeg  14.8082 -10.6498 -3.39122
RightFoot  -1.45662 -0.536403 6.08151
RightToes  -1.33073e-015 0 -3.6325e-017
Spine  -7.69493 -0.0250483 -1.41527
Spine1  10.0574 0.579661 -2.18744
HEad  16.686 12.6691 -3.36037
LeftShoulder1  1.61422 -2.62344 -21.0907
LeftArm  9.75746 -9.42339 -52.5596
LeftForeArm  28.0748 -9.90146 -11.5101
LeftHand  -0.0813172 4.09681 5.75257
RightShoulder  1.84924 1.94404 29.3086
RightArm  -29.1689 0.284842 50.0596
RightForeArm  77.7415 -4.5827 1.08683
RightHand  0.205828 -6.94653 -16.5821
LeftUpLeg  3.14977 2.58086 -4.16772
LeftLeg  15.422 -7.38559 -1.37694
LeftFoot  -17.5679 0.333546 4.18964
LeftToes  1.09107e-011 -1.16422e-010 2.98337e-011
1441
root  -1.13824 38.8604 -8.65419 -176.12 -29.8078 177.254
RightUpLeg  -23.0106 -0.0641131 -3.3265
RightLeg  1.3348 -6.30573 -1.24072
RightFoot  -3.30508 -0.45378 6.13248
RightToes  -1.33073e-015 0 -3.6325e-017
Spine  -8.9783 -0.51228 -1.79998
Spine1  10.7531 -0.00256082 -1.44255
HEad  15.8474 13.4185 -3.83169
LeftShoulder1  1.64767 -2.82624 -20.7123
LeftArm  10.4932 -10.487 -51.7213
LeftForeArm  26.9933 -10.5319 -11.275
LeftHand  -0.079404 4.1241 5.68401
RightShoulder  1.75774 1.6464 29.5752
RightArm  -29.6873 -2.5918 49.1373
RightForeArm  78.5418 -4.52799 0.963801
RightHand  0.259814 -7.37174 -16.2581
LeftUpLeg  5.63752 2.40537 -3.9806
LeftLeg  14.7113 -7.76979 -1.15724
LeftFoot  -18.2175 0.268583 2.64925
LeftToes  1.09107e-011 -1.16422e-010 2.98337e-011
1442
root  -1.78021 38.5998 -10.3853 -175.791 -30.015 176.849
RightUpLeg  -23.0531 -0.0610643 -3.33515
RightLeg  -0.590047 -4.30751 -1.16657
RightFoot  -8.85242 -0.234016 7.98555
RightToes  -1.33073e-015 0 -3.6325e-017
Spine  -9.41521 -0.885447 -2.27053
Spine1  10.9499 -0.477598 -0.986209
HEad  15.8535 13.8175 -3.99618
LeftShoulder1  1.70935 -3.05338 -20.7243
LeftArm  10.3929 -11.4788 -50.4493
LeftForeArm  27.3297 -9.78375 -11.6692
LeftHand  -0.0799872 4.07349 5.52563
RightShoulder  1.63502 1.26597 29.8368
RightArm  -30.6111 -5.81932 48.2581
RightForeArm  78.9673 -4.44814 0.600275
RightHand  0.264203 -7.41616 -16.1661
LeftUpLeg  7.99459 2.42789 -3.48379
LeftLeg  15.8716 -8.74105 -1.689
LeftFoot  -18.9273 0.168486 0.828175
LeftToes  1.09107e-011 -1.16422e-010 2.98337e-011
1443
root  -2.39742 38.4871 -12.066 -176.968 -29.1682 178.13
RightUpLeg  -25.0288 1.11711 -1.73817
RightLeg  7.39136 -4.15066 -1.30015
RightFoot  -1.39114 -0.447023 5.02198
RightToes  -1.33073e-015 0 -3.6325e-017
Spine  -8.24014 -0.622113 -0.259303
Spine1  10.4545 -0.462877 -0.913148
HEad  16.1317 14.4253 -4.42081
LeftShoulder1  1.6709 -2.73352 -21.5629
LeftArm  9.33333 -12.0948 -48.8872
LeftForeArm  29.2394 -8.11523 -12.3342
LeftHand  -0.0695863 4.28218 5.35835
RightShoulder  1.57378 1.07222 30.017
RightArm  -30.4645 -8.49561 47.0542
RightForeArm  78.6356 -4.5043 0.847669
RightHand  0.290924 -7.57542 -16.4005
LeftUpLeg  10.6913 1.7263 -1.82641
LeftLeg  17.4207 -8.40809 -2.04787
LeftFoot  -18.3307 -0.0131058 -2.01423
LeftToes  1.09107e-011 -1.16422e-010 2.98337e-011
1444
root  -3.04342 38.5412 -13.8124 -178.748 -28.6542 -179.412
RightUpLeg  -24.8814 3.89994 0.616105
RightLeg  12.6654 -6.19081 -2.26383
RightFoot  3.18259 -0.528644 4.31671
RightToes  -1.33073e-015 0 -3.6325e-017
Spine  -8.08482 -0.694571 2.37243
Spine1  11.1131 -1.04417 0.0421461
HEad  16.7763 15.4256 -4.96216
LeftShoulder1  1.659 -2.48097 -22.6262
LeftArm  6.41779 -10.891 -47.3388
LeftForeArm  31.7426 -6.44614 -12.5871
LeftHand  -0.0568197 4.57856 5.27928
RightShoulder  1.5695 1.06703 29.9602
RightArm  -31.1192 -9.88441 46.0495
RightForeArm  80.148 -4.35898 0.373285
RightHand  0.326136 -7.83136 -16.3763
LeftUpLeg  12.3451 -0.585639 0.371309
LeftLeg  20.6647 -6.31539 -2.29453
LeftFoot  -15.3684 -0.133719 -6.41561
LeftToes  1.09107e-011 -1.16422e-010 2.98337e-011
1445
root  -3.62952 38.4836 -15.5487 179.81 -28.9247 -177.182
RightUpLeg  -24.4823 3.61355 3.20114
RightLeg  18.0056 -6.50929 -2.57547
RightFoot  2.44286 -0.544895 4.64292
RightToes  -1.33073e-015 0 -3.6325e-017
Spine  -7.72253 -1.32862 3.98637
Spine1  11.1197 -1.95796 1.25664
HEad  17.7253 16.1885 -5.12793
LeftShoulder1  1.6849 -2.3801 -23.6447
LeftArm  3.67292 -8.49757 -46.1938
LeftForeArm  33.0742 -4.71054 -12.7277
LeftHand  -0.0502027 4.7695 5.54693
RightShoulder  1.48522 0.858189 29.7211
RightArm  -32.2231 -10.4475 45.3179
RightForeArm  82.6807 -4.09878 -0.506107
RightHand  0.373376 -8.29577 -15.7238
LeftUpLeg  10.2322 0.401803 4.22436
LeftLeg  29.7665 -8.00565 -4.58333
LeftFoot  -9.40402 0.242225 -10.9765
LeftToes  1.09107e-011 -1.16422e-010 2.98337e-011
1446
root  -4.15505 38.3995 -17.1898 178.836 -29.7218 -175.433
RightUpLeg  -23.8065 2.52486 5.74809
RightLeg  22.3843 -6.22196 -3.02826
RightFoot  -0.729434 -0.234221 2.4672
RightToes  -1.33073e-015 0 -3.6325e-017
Spine  -7.30692 -1.98463 4.92061
Spine1  11.0177 -2.79804 2.53112
HEad  18.2393 16.1834 -4.56217
LeftShoulder1  1.76185 -2.68745 -23.3977
LeftArm  1.01047 -5.58364 -46.4789
LeftForeArm  33.6714 -2.77553 -12.6904
LeftHand  -0.0457642 4.87338 5.55913
RightShoulder  1.38166 0.629416 29.1354
RightArm  -33.5289 -11.0562 45.5638
RightForeArm  83.8718 -3.89936 -1.36182
RightHand  0.378504 -8.59592 -14.5398
LeftUpLeg  4.92545 0.548502 7.4611
LeftLeg  41.792 -7.4771 -6.72533
LeftFoot  0.484683 1.48482 -14.3053
LeftToes  1.09107e-011 -1.16422e-010 2.98337e-011
1447
root  -4.64927 38.3276 -18.6823 177.649 -30.8789 -173.876
RightUpLeg  -22.1993 3.72254 7.58013
RightLeg  25.4437 -8.38868 -4.55708
RightFoot  -4.37299 -0.160921 2.15352
RightToes  -1.33073e-015 0 -3.6325e-017
Spine  -6.55694 -2.56315 6.15025
Spine1  11.2776 -3.34351 3.4862
HEad  18.4016 15.3651 -3.60995
LeftShoulder1  1.78508 -2.75819 -23.4404
LeftArm  0.999859 -4.09799 -46.6627
LeftForeArm  33.2948 -0.777828 -13.0958
LeftHand  -0.0514666 4.65983 4.89694
RightShoulder  1.32427 0.487415 28.9226
RightArm  -33.7112 -11.0993 45.7885
RightForeArm  82.4688 -3.95476 -1.39824
RightHand  0.341539 -8.45609 -13.8426
LeftUpLeg  -1.45634 -0.181662 9.64309
LeftLeg  52.5992 -5.26211 -6.89097
LeftFoot  13.5951 3.19341 -14.7552
LeftToes  1.09107e-011 -1.16422e-010 2.98337e-011
1448
root  -5.20137 38.418 -20.2083 176.744 -31.2055 -173.167
RightUpLeg  -19.1415 3.06517 9.00266
RightLeg  26.1556 -8.25644 -4.62514
RightFoot  -7.62782 -0.107134 1.70704
RightToes  -1.33073e-015 0 -3.6325e-017
Spine  -5.80862 -2.5253 7.13402
Spine1  11.2423 -3.13589 3.67675
HEad  18.7446 14.0999 -2.85966
LeftShoulder1  1.73058 -2.44979 -24.1031
LeftArm  2.12389 -3.52551 -46.6953
LeftForeArm  33.9728 1.40868 -13.7439
LeftHand  -0.0459133 4.68429 3.99027
RightShoulder  1.35122 0.52942 29.2552
RightArm  -33.209 -10.1892 45.4039
RightForeArm  80.9819 -4.06716 -1.12113
RightHand  0.302349 -8.08164 -14.0278
LeftUpLeg  -6.94038 -0.51523 10.3898
LeftLeg  60.5554 -2.42547 -4.08421
LeftFoot  16.1718 3.30179 -13.8418
LeftToes  1.09107e-011 -1.16422e-010 2.98337e-011
1449
root  -5.79229 38.6077 -21.7891 176.816 -30.7228 -173.689
RightUpLeg  -15.664 2.31979 9.28243
RightLeg  25.5216 -7.21115 -3.97336
RightFoot  -10.4402 -0.0814229 1.3548
RightToes  -1.33073e-015 0 -3.6325e-017
Spine  -6.20056 -1.82413 7.50616
Spine1  11.7131 -2.16467 2.91408
HEad  19.0409 12.8058 -1.8863
LeftShoulder1  1.75165 -2.54023 -23.9934
LeftArm  1.70838 -2.65143 -47.5505
LeftForeArm  36.5908 3.81592 -13.8434
LeftHand  -0.0372812 4.87904 3.14215
RightShoulder  1.45591 0.81042 29.4123
RightArm  -32.8584 -8.86697 45.663
RightForeArm  80.7373 -4.10674 -0.952457
RightHand  0.288942 -7.85599 -14.6096
LeftUpLeg  -11.9769 0.535593 9.87474
LeftLeg  65.5487 -1.08979 -1.94561
LeftFoot  8.7177 1.70976 -9.95043
LeftToes  1.09107e-011 -1.16422e-010 2.98337e-011
1450
root  -6.41178 38.7524 -23.3683 177.257 -29.7518 -174.824
RightUpLeg  -12.1808 0.881126 8.78419
RightLeg  24.7619 -5.11889 -2.79415
RightFoot  -13.2035 -0.078559 0.666354
RightToes  -1.33073e-015 0 -3.6325e-017
Spine  -6.27685 -1.0034 7.65065
Spine1  11.684 -0.967533 1.82086
HEad  19.6822 11.9894 -1.13851
LeftShoulder1  1.6149 -2.15958 -23.5539
LeftArm  1.45297 -0.929662 -48.5324
LeftForeArm  38.8037 4.86889 -13.8179
LeftHand  -0.0281084 5.29843 2.83882
RightShoulder  1.62869 1.33355 29.1642
RightArm  -32.3819 -7.26156 46.5838
RightForeArm  81.5279 -4.116 -0.699072
RightHand  0.328659 -8.08377 -15.0706
LeftUpLeg  -16.4608 1.84236 8.43076
LeftLeg  66.8732 0.0426685 0.837672
LeftFoot  4.34845 1.0168 -7.56496
LeftToes  1.09107e-011 -1.16422e-010 2.98337e-011
1451
root  -7.05328 38.8397 -24.9522 177.822 -28.236 -176.035
RightUpLeg  -8.69313 -0.169516 7.99701
RightLeg  23.8391 -2.97601 -1.65996
RightFoot  -15.5762 -0.115628 -0.277356
RightToes  -1.33073e-015 0 -3.6325e-017
Spine  -6.73563 -0.0277174 8.29366
Spine1  12.1073 0.50366 -0.119064
HEad  19.9441 11.6238 -0.505251
LeftShoulder1  1.41517 -1.54503 -23.1555
LeftArm  1.13328 1.11469 -49.0333
LeftForeArm  39.7479 4.8202 -13.741
LeftHand  -0.0252479 5.47217 2.55315
RightShoulder  1.82275 1.94292 28.7968
RightArm  -31.0572 -4.87215 47.7808
RightForeArm  81.7128 -4.2396 0.0701929
RightHand  0.344778 -8.12689 -15.4878
LeftUpLeg  -20.1884 3.11445 6.68514
LeftLeg  64.9037 0.827325 2.60516
LeftFoot  0.952117 0.632156 -5.92148
LeftToes  1.09107e-011 -1.16422e-010 2.98337e-011
